<svg xmlns="http://www.w3.org/2000/svg" viewBox="0 0 200 120"><path d="M99 84.5l-4.8 12.7h9.4zm-5.3 14.2l-3.3 9-.3.7-.1.7q0 .9.5 1.5.5.7 1.3 1.1l1.5.7 1.4.3v.6l-3-.1h-6l-3 .1v-.6q1.5-.3 2.5-1 1-.8 1.8-1.8.7-1 1.2-2.2l1-2.5L98 84l.2-.7.2-.5-.2-.8-.4-.9q1.3-.2 2.2-.6l2.1-.9 10.4 28.6q.7 2 2 3.1 1.2 1.1 3.7 1.4v.6l-4-.1h-9.7l-1.5.1v-.6q2-.2 3.5-1 1.4-.9 1.4-2.3l-.2-.8-.2-.7-3.3-9.2zm1.1-67q1.4.8 2.8 1 1.4.3 2.8.3 3.2 0 5.3-1.8 2.1-1.8 2.1-5.1 0-1.7-.7-3-.7-1.4-1.8-2.4t-2.7-1.5q-1.5-.5-3.1-.5l-2.4.1q-1.1.1-2.3.5zm0 15.7q.2.3 1 .7l1.6.5 2.1.4h2.1q4 0 6.3-2 2.3-2.2 2.3-6.2 0-2.2-1.4-4-1.3-1.9-3-3l-2.4.3q-1.2.2-2.5.2l-3.1-.2q-1.5-.2-3-.7zm-4.5-21.9l-.1-3.5q-.1-1.4-.7-2.2-.5-.9-1.5-1.2-1-.4-2.8-.6v-.6l3 .2h3.1l4-.2q2-.2 4.3-.2 2.1 0 4.4.5 2.3.4 4.3 1.5 2 1 3.2 2.8 1.3 1.8 1.3 4.5 0 1.2-.4 2.2-.3 1-1 2-.7.8-1.6 1.4-.9.7-1.9 1v.1q3.4 1.1 5.3 3.4 2 2.3 2 6 0 2.3-1 3.9-1 1.5-2.7 2.4-1.6 1-3.7 1.3-2.1.4-4.3.4-3.4 0-6.8-.3-3.3-.2-6.7-.2h-2.4l-2.3.2v-.6q1.8-.2 2.8-.6 1-.4 1.5-1.2.5-.9.6-2.2l.1-3.5zM111 62.8c-.3-2 .6-3.3 1.6-5 1.8-3.1 4-6 6.3-8.8 6.2-7.3 15-12.3 24-15.6 7.4-2.8 15.9-4.5 21.6-10.5 1-1 1.9-2.1 2.5-3.4 1.4-3-.8-8-4.7-7.5-3.4.5-5.9 4.4-6.5 7.5-2.7-2-.3-7.5 1.3-9.5 3-3.6 10.7-4.4 14.4-1.7 8 6 5 17.3-1.1 23a38 38 0 01-16 8c-9.4 2.5-19.6 4-28 8.9a39 39 0 00-10 8.8c-1.6 2-3 4.6-5.4 5.8M183 44c0 9.5-9 12.9-17.2 13.7-5 .6-10.6 1-15.7.4-7-.6-14.5-2-21.4-.5a34 34 0 00-15 7.9c-1.8-2 .4-3.8 2-5.2 3.6-3 7.8-5.5 12.2-7.3a53.9 53.9 0 0120.7-4c7.5.2 15.4 2.2 23 1 2.2-.4 4.5-1 6.5-2.2 1.7-1.2 3-2.9 5-3.8m-.5 17.3c-4.8 1.6-3 6-2.4 10 .7 5 0 9.5-4.8 12-5.1 2.8-11.5 1-16.5-1-10.4-4.5-19-11.4-30.2-13.7-4.1-.8-7.8-.9-12-.4-2 .3-3.6 1.3-4.9-.8 5-1.6 9.8-3.3 15-3.8 9.2-.9 18.4 1.6 26.7 5.4 4.7 2.2 9 5.2 13.8 7 3 1 5.8 1.4 8.4-1 4.8-4.5-3.4-9.9-1.2-14.8 1.5-3.3 7-1.3 8.1 1m-75.8 1.6c2 2.8 2.3 6.7-1.1 8.4-.9-1.1-3-3-3-4.5 0-1.7 3-3.2 4.1-4m57.8 38.4c-1.9 2.8-7.6 2.7-10.7 2.7-2 0-3.8-.2-5.7-.8-11.7-3.6-14-17.5-23.4-24.3a22.3 22.3 0 00-8-4c-2.8-.6-6.7-.2-8-3.1 3.2.2 6.3 1 9.5 1.5a38.7 38.7 0 0120.7 7.8c4.1 3.6 7.4 8.4 11 12.5 2 2.3 4.2 5 7 6.3 2.4 1.2 5 1.4 7.6 1.4M89.1 62.8c.3-2-.6-3.3-1.6-5-1.8-3.1-4-6-6.3-8.8a57.5 57.5 0 00-24-15.6c-7.4-2.8-15.9-4.5-21.6-10.5-1-1-1.9-2.1-2.5-3.4-1.4-3 .8-8 4.7-7.5 3.4.5 5.9 4.4 6.5 7.5 2.7-2 .3-7.5-1.3-9.5-3-3.6-10.7-4.4-14.4-1.7-8 6-5 17.3 1.1 23a38 38 0 0016 8c9.4 2.5 19.6 4 28 8.9a39 39 0 0110 8.8c1.6 2 3 4.6 5.4 5.8M17 44c0 9.5 9 12.9 17.2 13.7 5 .6 10.6 1 15.7.4 7-.6 14.5-2 21.4-.5a34 34 0 0115 7.9c1.8-2-.4-3.8-2-5.2-3.6-3-7.8-5.5-12.2-7.3a53.9 53.9 0 00-20.7-4c-7.5.2-15.4 2.2-23 1-2.2-.4-4.5-1-6.5-2.2-1.7-1.2-3-2.9-5-3.8m.5 17.3c4.8 1.6 3 6 2.4 10-.7 5 0 9.5 4.8 12 5.1 2.8 11.5 1 16.5-1 10.4-4.5 19-11.4 30.2-13.7 4.1-.8 7.8-.9 12-.4 2 .3 3.6 1.3 4.9-.8-5-1.6-9.8-3.3-15-3.8A52.7 52.7 0 0046.7 69c-4.7 2.2-9 5.2-13.8 7-3 1-5.8 1.4-8.4-1-4.8-4.5 3.4-9.9 1.2-14.8-1.5-3.3-7-1.3-8.1 1m75.8 1.6c-2 2.8-2.3 6.7 1.1 8.4.9-1.1 3-3 3-4.5 0-1.7-3-3.2-4.1-4m-57.8 38.4c1.9 2.8 7.6 2.7 10.7 2.7 2 0 3.8-.2 5.7-.8 11.7-3.6 14-17.5 23.4-24.3 2.4-1.8 5.1-3.3 8-4 2.8-.6 6.7-.2 8-3.1-3.2.2-6.3 1-9.5 1.5A38.7 38.7 0 0061 80.9c-4.1 3.6-7.4 8.4-11 12.5-2 2.3-4.2 5-7 6.3-2.4 1.2-5 1.4-7.6 1.4" fill="#fff"/></svg>