<svg width="100mm" height="90mm" version="1.1" viewBox="0 0 200 180"
                        xmlns="http://www.w3.org/2000/svg" xmlns:cc="http://creativecommons.org/ns#"
                        xmlns:dc="http://purl.org/dc/elements/1.1/"
                        xmlns:rdf="http://www.w3.org/1999/02/22-rdf-syntax-ns#">
                        <metadata>
                            <rdf:RDF>
                                <cc:Work rdf:about="">
                                    <dc:format>image/svg+xml</dc:format>
                                    <dc:type rdf:resource="http://purl.org/dc/dcmitype/StillImage" />
                                    <dc:title />
                                </cc:Work>
                            </rdf:RDF>
                        </metadata>
                        <!-- #3030d1 -->
                        <g transform="translate(0,-117)">
                            <g transform="translate(-5.3072 105.11)" fill="#3030d1">
                                <path d="m12.282 149.27h185.53v2.1782h-185.53z" stroke-width=".26302" />
                                <path
                                    d="m93.873 83.599c0.36991-2.0097-0.51583-3.2883-1.5318-4.9782-1.8676-3.1068-4.0163-6.0382-6.353-8.8076-6.1324-7.2674-15.072-12.318-23.899-15.613-7.4595-2.7848-15.982-4.4905-21.664-10.492-0.95517-1.0089-1.8964-2.1171-2.4923-3.3814-1.4348-3.0442 0.74298-8.0187 4.626-7.5116 3.4298 0.44788 5.9529 4.3888 6.51 7.5116 2.7355-1.9327 0.38363-7.5316-1.2983-9.5569-2.9887-3.5989-10.634-4.3796-14.387-1.6248-8.0072 5.8781-4.9177 17.271 1.1335 23.038 4.3576 4.1524 10.404 6.2147 16.083 7.8355 9.2609 2.6428 19.503 4.1454 27.955 8.9806 3.8887 2.2245 7.0212 5.4868 9.9063 8.8562 1.67 1.9503 3.0654 4.6002 5.4113 5.7441m-71.993-18.764c0.07957 9.4854 9.0934 12.848 17.232 13.719 5.0406 0.53995 10.638 0.86621 15.701 0.38447 6.9898-0.66516 14.476-1.992 21.445-0.50548 5.6755 1.2109 10.543 4.1028 14.935 7.8464 1.8301-1.8749-0.34082-3.7919-1.9204-5.1256-3.6172-3.0543-7.8568-5.5591-12.248-7.3379-6.3024-2.5531-13.863-4.122-20.679-3.9535-7.5692 0.18688-15.394 2.1157-22.976 0.93131-2.2596-0.35308-4.5776-0.90106-6.51-2.1709-1.7743-1.1661-3.0435-2.8858-4.9782-3.788m0.38294 17.232c4.8382 1.6459 2.9865 6.0922 2.4604 9.9564-0.68191 5.0096-0.0096 9.5398 4.8154 12.13 5.0661 2.7192 11.494 0.97536 16.466-1.1335 10.356-4.3923 18.973-11.308 30.252-13.601 4.0837-0.82983 7.7269-0.90489 11.871-0.38868 2.064 0.25695 3.6793 1.2794 4.9782-0.83634-4.9078-1.5969-9.7619-3.2703-14.935-3.7643-9.2832-0.88727-18.435 1.5712-26.806 5.4144-4.6799 2.1483-8.9146 5.2053-13.786 6.9059-3.0493 1.065-5.8079 1.4192-8.4022-0.97918-4.7892-4.4268 3.4536-9.8522 1.2251-14.771-1.4817-3.2703-6.9153-1.2913-8.1404 1.0669m75.822 1.5318c-1.9453 2.7671-2.2816 6.6704 1.1488 8.4247 0.85815-1.1576 3.0302-3.0421 2.99-4.5608-0.0429-1.6152-2.9418-3.116-4.1388-3.8639m-57.824 38.294c1.911 2.792 7.6872 2.681 10.722 2.6806 2.0153 0 3.808-0.1145 5.7441-0.72299 11.703-3.6781 14.05-17.566 23.359-24.364 2.3754-1.7347 5.1505-3.2622 8.0417-3.906 2.8154-0.62726 6.6562-0.29946 8.0417-3.1742-3.232 0.25504-6.3801 0.97305-9.5735 1.5011-7.7384 1.279-14.558 2.586-20.678 7.8533-4.148 3.5698-7.3933 8.3282-10.945 12.473-1.9894 2.3221-4.2439 4.9598-7.0539 6.302-2.4382 1.1641-5.0089 1.3564-7.6588 1.3568" />
                                <path
                                    d="m115.74 83.599c-0.36992-2.0097 0.51582-3.2883 1.5318-4.9782 1.8676-3.1068 4.0163-6.0382 6.353-8.8076 6.1324-7.2674 15.072-12.318 23.899-15.613 7.4595-2.7848 15.982-4.4905 21.664-10.492 0.95517-1.0089 1.8964-2.1171 2.4923-3.3814 1.4348-3.0442-0.74299-8.0187-4.626-7.5116-3.4298 0.44788-5.9529 4.3888-6.51 7.5116-2.7355-1.9327-0.38362-7.5316 1.2983-9.5569 2.9886-3.5989 10.634-4.3796 14.387-1.6248 8.0072 5.8781 4.9177 17.271-1.1335 23.038-4.3576 4.1524-10.404 6.2147-16.083 7.8355-9.2609 2.6428-19.503 4.1454-27.955 8.9806-3.8888 2.2245-7.0212 5.4868-9.9063 8.8562-1.67 1.9503-3.0654 4.6002-5.4113 5.7441m71.993-18.764c-0.0796 9.4854-9.0933 12.848-17.232 13.719-5.0406 0.53995-10.638 0.86621-15.701 0.38447-6.9898-0.66516-14.476-1.992-21.445-0.50548-5.6756 1.2109-10.543 4.1028-14.935 7.8464-1.8301-1.8749 0.34082-3.7919 1.9204-5.1256 3.6172-3.0543 7.8568-5.5591 12.248-7.3379 6.3024-2.5531 13.863-4.122 20.679-3.9535 7.5692 0.18688 15.394 2.1157 22.976 0.9313 2.2596-0.35307 4.5776-0.90105 6.51-2.1709 1.7743-1.166 3.0434-2.8858 4.9782-3.788m-0.38293 17.232c-4.8382 1.6459-2.9865 6.0922-2.4604 9.9564 0.6819 5.0096 0.01 9.5398-4.8154 12.13-5.0661 2.7192-11.494 0.97535-16.466-1.1335-10.356-4.3923-18.973-11.308-30.252-13.601-4.0837-0.82982-7.727-0.90489-11.871-0.38868-2.064 0.25695-3.6793 1.2794-4.9782-0.83634 4.9077-1.5969 9.7619-3.2703 14.935-3.7643 9.2832-0.88727 18.435 1.5712 26.806 5.4144 4.6799 2.1483 8.9146 5.2053 13.786 6.9059 3.0494 1.065 5.8079 1.4192 8.4022-0.97918 4.7892-4.4268-3.4536-9.8523-1.2251-14.771 1.4817-3.2703 6.9153-1.2913 8.1404 1.0669m-75.822 1.5318c1.9453 2.7671 2.2816 6.6704-1.1488 8.4247-0.85818-1.1576-3.0302-3.0421-2.99-4.5608 0.0428-1.6152 2.9417-3.116 4.1388-3.8639m57.824 38.294c-1.911 2.792-7.6872 2.681-10.722 2.6806-2.0153 0-3.808-0.1145-5.7441-0.72299-11.703-3.6781-14.05-17.566-23.359-24.364-2.3754-1.7347-5.1505-3.2622-8.0417-3.906-2.8154-0.62725-6.6562-0.29945-8.0417-3.1742 3.232 0.25503 6.3801 0.97304 9.5735 1.5011 7.7384 1.279 14.558 2.586 20.678 7.8533 4.1481 3.5698 7.3934 8.3282 10.945 12.473 1.9895 2.3221 4.2439 4.9598 7.0539 6.302 2.4382 1.1641 5.0089 1.3564 7.6588 1.3568" />
                                <path
                                    d="m41.512 159.14q-1.2436 0.18136-1.9432 0.41455-0.69955 0.20727-1.0364 0.57-0.31091 0.36273-0.38864 0.90683-0.07773 0.51819-0.07773 1.2955v12.436q0.69955 0.12955 1.3473 0.23319 0.67364 0.10363 1.3473 0.10363 1.5287 0 2.6687-0.31091 1.14-0.31092 2.0468-0.93274t1.6582-1.5546q0.77728-0.95864 1.5546-2.2282h0.38864l-1.995 5.8037q-0.93274-0.0518-1.8914-0.0777-0.93274-0.0259-1.8655-0.0259h-7.6174q-0.64773 0-1.2955 0.0259t-1.2955 0.0777v-0.31091q0.85501-0.0777 1.3473-0.2591 0.51819-0.18136 0.80319-0.44045 0.285-0.28501 0.36273-0.67365 0.10364-0.38863 0.10364-0.90683v-10.26q0-1.0882-0.07773-1.7878-0.05181-0.72546-0.31091-1.1659-0.25909-0.44045-0.77728-0.64773-0.51819-0.20728-1.4509-0.285v-0.31092q1.0105 0.0519 1.995 0.0777 1.0105 0.0259 2.0209 0.0259 1.0882 0 2.1764-0.0259 1.1141-0.0259 2.2023-0.0777z" />
                                <path
                                    d="m52.276 161.45q0-0.72546-0.15546-1.1141-0.12955-0.41455-0.41455-0.64774-0.285-0.23318-0.69955-0.33682-0.41455-0.10364-0.95865-0.20727v-0.31092q1.0882 0.0519 2.1246 0.0777 1.0623 0.0259 2.1505 0.0259 0.77728 0 1.5287-0.0259 0.77728-0.0259 1.5546-0.0777v0.31092q-0.8291 0.0777-1.3732 0.25909-0.5441 0.15546-0.85501 0.51819-0.31091 0.33682-0.44046 0.88092-0.12955 0.51818-0.12955 1.2955v8.4464q0 1.2177 0.38864 2.0728 0.41455 0.8291 1.1141 1.3732 0.69955 0.51819 1.6064 0.77728 0.93274 0.23319 1.9691 0.23319 1.6582 0 2.7205-0.49228 1.0623-0.49229 1.6841-1.1918 0.62182-0.72547 0.85501-1.5286 0.23318-0.8291 0.23318-1.4509v-7.2546q0-1.0364-0.10364-1.7359-0.10364-0.72546-0.38864-1.1659-0.25909-0.46637-0.75137-0.69956-0.46637-0.23318-1.2437-0.33681v-0.31092q0.80319 0.0519 1.5805 0.0777 0.80318 0.0259 1.6064 0.0259 0.67365 0 1.3214-0.0259 0.64774-0.0259 1.3214-0.0777v0.31092q-0.54409 0.0777-1.0105 0.20727-0.44046 0.12954-0.75137 0.46637-0.31092 0.33682-0.49228 0.98456-0.15545 0.62182-0.15545 1.71v7.7469q0 1.5546-0.57001 2.6946-0.54409 1.1141-1.5027 1.8655-0.95865 0.75137-2.2541 1.1141-1.2696 0.36273-2.7205 0.36273-1.3214 0-2.5391-0.36273-1.2177-0.33682-2.1764-1.0364-0.93274-0.72546-1.5027-1.7878-0.57001-1.0623-0.57001-2.4614z" />
                                <path
                                    d="m75.565 174.77q0.44046 0.10364 1.2955 0.23319 0.85501 0.10363 1.5805 0.10363 1.5546 0 2.7723-0.2591 1.2436-0.25909 2.2541-0.8291 1.0364-0.56999 1.9432-1.4509 0.90683-0.88091 1.8396-2.1246l0.285 0.23318-2.3578 5.2078q-0.44045-0.0518-0.90682-0.0777t-0.90683-0.0259h-9.7419q-0.75137 0-1.5027 0.0259-0.75138 0.0259-1.5027 0.0777v-0.31091q0.93274-0.0777 1.4509-0.285 0.51819-0.20728 0.77728-0.64773 0.25909-0.44047 0.31091-1.14 0.07773-0.72546 0.07773-1.8136v-8.6537q0-1.0882-0.07773-1.7878-0.05185-0.72546-0.31091-1.1659-0.25909-0.44045-0.80319-0.64773t-1.4768-0.285v-0.31092q0.88092 0.0259 1.6582 0.0519 0.80318 0 1.6323 0.0259 0.85502 0 1.7877 0.0259 0.95865 0 2.1505 0 1.8137 0 3.6273-0.0259 1.8137-0.0259 3.6791-0.0777-0.05185 0.59592-0.05185 1.1141 0 0.5182 0 1.0364 0 0.57001 0.05185 1.1659 0.05185 0.57001 0.10363 1.2696l-0.33682 0.10364q-0.33682-1.2436-0.90683-2.0209-0.5441-0.80318-1.2955-1.2436-0.72546-0.44046-1.6064-0.59592-0.88091-0.15545-1.8655-0.15545-1.8137 0-3.6273 0.15545v6.4774q0.51818 0 0.98455-0.0259 0.49228-0.0259 1.0105-0.0259 1.7877 0 2.8241-0.69955 1.0623-0.72546 1.2955-2.6168h0.31091q0 0.93273-0.02588 1.8655t-0.02588 1.8396q0 0.93274 0.02588 1.8655t0.02588 1.8655h-0.31091q-0.23318-1.0882-0.57001-1.7618-0.31092-0.69955-0.85501-1.0623-0.51819-0.36273-1.2696-0.49228-0.72546-0.12961-1.7618-0.12961h-1.6582z" />
                                <path
                                    d="m19.654 164.86q0.81074 0.42039 1.6515 0.57052 0.84077 0.15014 1.7116 0.15014 1.9218 0 3.1829-1.051 1.2912-1.081 1.2912-3.0928 0-1.0209-0.42038-1.8317-0.42038-0.81074-1.111-1.3813-0.69063-0.60055-1.6215-0.90083-0.90082-0.3303-1.8917-0.3303-0.72066 0-1.4113 0.0601t-1.3813 0.30027zm0 9.3686q0.12011 0.21019 0.54049 0.42039 0.45041 0.18016 1.0209 0.3303 0.60055 0.12011 1.2612 0.21019 0.6606 0.0601 1.2612 0.0601 2.4322 0 3.7835-1.2612 1.3813-1.2912 1.3813-3.7234 0-1.3212-0.81074-2.4022-0.81074-1.111-1.8617-1.8317-0.72066 0.12011-1.4413 0.24022-0.72066 0.0901-1.4713 0.0901-0.93085 0-1.8617-0.0901-0.93085-0.12011-1.8016-0.45041zm-2.7025-13.152q0-1.2612-0.09008-2.0719-0.06005-0.84077-0.39036-1.3512-0.30027-0.51047-0.90082-0.75069t-1.6815-0.3303v-0.36033q0.93085 0.0601 1.8317 0.0901 0.90082 0.03 1.8317 0.03 1.2011 0 2.4022-0.12012 1.2011-0.12011 2.5824-0.12011 1.2612 0 2.6424 0.27025 1.4113 0.27025 2.5824 0.93085 1.1711 0.63058 1.9518 1.7116 0.78071 1.081 0.78071 2.7025 0 0.69063-0.24022 1.3212-0.21019 0.60055-0.63057 1.141-0.39036 0.51046-0.93085 0.90082-0.54049 0.39036-1.1711 0.60055v0.0601q2.0719 0.6606 3.2129 2.0419 1.1711 1.3512 1.1711 3.6033 0 1.3812-0.60055 2.3121-0.60055 0.90081-1.5915 1.4713-0.9909 0.54049-2.2521 0.75068-1.2612 0.24022-2.5824 0.24022-2.0419 0-4.0837-0.15014-2.0118-0.15013-4.0537-0.15013-0.69063 0-1.4113 0.03-0.69063 0.03-1.3813 0.0901v-0.36033q1.051-0.0901 1.6515-0.3303 0.60055-0.24022 0.90082-0.75068 0.30027-0.51047 0.36033-1.3212 0.09008-0.84077 0.09008-2.1019z" />
                                <path
                                    d="m125.33 173.58q0.8291 0.77728 1.8914 1.0882 1.0882 0.31091 2.1764 0.31091 3.99 0 5.8037-2.0468 1.8396-2.0468 1.8396-5.9332 0-1.6841-0.62182-3.135-0.59592-1.4768-1.6841-2.565-1.0623-1.0882-2.565-1.71-1.4768-0.62182-3.2387-0.62182-0.93274 0-1.7877 0.18137-0.8291 0.18136-1.6582 0.54409-0.10364 1.3473-0.12955 2.6946-0.0259 1.3473-0.0259 2.7205zm-4.8969 1.7618q0.85501-0.0777 1.3473-0.25909 0.51819-0.20728 0.77728-0.46637 0.285-0.285 0.36273-0.59591 0.0777-0.33682 0.0777-0.64774v-11.97q0-0.57001-0.0777-0.98456-0.0518-0.44046-0.31091-0.75137-0.25909-0.31091-0.77728-0.49227-0.51819-0.18137-1.3991-0.2591v-0.31091q0.67365 0.0518 1.3473 0.0777t1.3473 0.0259q0.90682 0 1.7359-0.0518t1.6323-0.12955q0.80319-0.0777 1.5805-0.12954 0.77728-0.0518 1.6064-0.0518 2.0986 0 3.9382 0.64773 1.8396 0.64774 3.2128 1.8655 1.3991 1.1918 2.2023 2.9018 0.80319 1.71 0.80319 3.8346 0 2.1505-0.77728 3.6791-0.77728 1.5027-2.0728 2.4873-1.2955 0.95865-2.9796 1.3991-1.6582 0.44046-3.4718 0.44046-1.3732 0-2.3837-0.0259-1.0105 0-1.7618 0-0.75138 0-1.3473-0.0259-0.59592 0-1.14 0-0.88092 0-1.7359 0.0259t-1.7359 0.0777z" />
                                <path
                                    d="m145 167.13q0 1.5805 0.46637 3.0314 0.46637 1.4509 1.3473 2.565 0.88091 1.0882 2.1505 1.7618 1.2696 0.64774 2.8759 0.64774t2.8759-0.64774q1.2696-0.67364 2.1505-1.7618 0.88092-1.1141 1.3473-2.565 0.46636-1.4509 0.46636-3.0314t-0.46636-3.0314q-0.46637-1.4509-1.3473-2.5391-0.88092-1.1141-2.1505-1.7618-1.2696-0.67364-2.8759-0.67364t-2.8759 0.67364q-1.2696 0.64773-2.1505 1.7618-0.88092 1.0882-1.3473 2.5391-0.46637 1.4509-0.46637 3.0314zm-2.7464 0q0-2.0987 0.75137-3.7569 0.77728-1.6582 2.0728-2.7982 1.2955-1.1659 3.0314-1.7618 1.7618-0.62182 3.731-0.62182t3.705 0.62182q1.7618 0.59592 3.0573 1.7618 1.2955 1.14 2.0468 2.7982 0.77728 1.6582 0.77728 3.7569 0 2.0986-0.77728 3.7569-0.75138 1.6582-2.0468 2.8241-1.2955 1.14-3.0573 1.7618-1.7359 0.59591-3.705 0.59591t-3.731-0.59591q-1.7359-0.62183-3.0314-1.7618-1.2955-1.1659-2.0728-2.8241-0.75137-1.6582-0.75137-3.7569z" />
                                <path
                                    d="m168.57 166.06q0.69955 0.36273 1.425 0.49228 0.72546 0.12954 1.4768 0.12954 1.6582 0 2.7464-0.90682 1.1141-0.93274 1.1141-2.6687 0-0.88092-0.36273-1.5805-0.36273-0.69955-0.95865-1.1918-0.59592-0.51818-1.3991-0.77727-0.77728-0.28501-1.6323-0.28501-0.62182 0-1.2177 0.0518-0.59591 0.0518-1.1918 0.25909zm0 8.0837q0.10363 0.18137 0.46636 0.36273 0.38864 0.15546 0.88092 0.28501 0.51819 0.10363 1.0882 0.18136 0.57001 0.0518 1.0882 0.0518 2.0987 0 3.2646-1.0882 1.1918-1.1141 1.1918-3.2128 0-1.14-0.69955-2.0728-0.69955-0.95865-1.6064-1.5805-0.62182 0.10363-1.2436 0.20727-0.62182 0.0777-1.2696 0.0777-0.8032 0-1.6064-0.0777-0.80318-0.10364-1.5546-0.38864zm-2.3318-11.348q0-1.0882-0.0777-1.7877-0.0518-0.72547-0.33682-1.1659-0.25909-0.44046-0.77728-0.64774-0.51819-0.20727-1.4509-0.285v-0.31091q0.80318 0.0518 1.5805 0.0777 0.77728 0.0259 1.5805 0.0259 1.0364 0 2.0728-0.10364 1.0364-0.10364 2.2282-0.10364 1.0882 0 2.28 0.23319 1.2178 0.23318 2.2282 0.80319 1.0105 0.5441 1.6841 1.4768 0.67364 0.93274 0.67364 2.3318 0 0.59591-0.20727 1.14-0.18137 0.51818-0.5441 0.98455-0.33682 0.44046-0.80319 0.77728-0.46637 0.33683-1.0105 0.51819v0.0518q1.7877 0.57 2.7723 1.7618 1.0105 1.1659 1.0105 3.1091 0 1.1918-0.51819 1.995-0.51818 0.77728-1.3732 1.2696-0.85501 0.46637-1.9432 0.64773-1.0882 0.20728-2.2282 0.20728-1.7618 0-3.5237-0.12955-1.7359-0.12955-3.4978-0.12955-0.59592 0-1.2178 0.0259-0.59591 0.0259-1.1918 0.0777v-0.31091q0.90682-0.0777 1.425-0.285 0.51819-0.20728 0.77728-0.64773 0.2591-0.44046 0.31091-1.14 0.0777-0.72546 0.0777-1.8136z" />
                                <path
                                    d="m186.36 174.54q0.44046 0.10364 1.2955 0.23319 0.85501 0.10363 1.5805 0.10363 1.5546 0 2.7723-0.25909 1.2436-0.25909 2.2541-0.8291 1.0364-0.57 1.9432-1.4509t1.8396-2.1246l0.28501 0.23318-2.3578 5.2078q-0.44046-0.0518-0.90683-0.0777t-0.90683-0.0259h-9.7419q-0.75137 0-1.5027 0.0259t-1.5027 0.0777v-0.31091q0.93274-0.0777 1.4509-0.285 0.51819-0.20728 0.77728-0.64773 0.25909-0.44046 0.31091-1.14 0.0777-0.72546 0.0777-1.8136v-8.6537q0-1.0882-0.0777-1.7877-0.0518-0.72547-0.31091-1.1659-0.25909-0.44046-0.80319-0.64774-0.54409-0.20727-1.4768-0.285v-0.31091q0.88092 0.0259 1.6582 0.0518 0.80319 0 1.6323 0.0259 0.85501 0 1.7877 0.0259 0.95865 0 2.1505 0 1.8137 0 3.6273-0.0259 1.8137-0.0259 3.6791-0.0777-0.0518 0.59591-0.0518 1.1141t0 1.0364q0 0.57 0.0518 1.1659 0.0518 0.57 0.10364 1.2696l-0.33683 0.10364q-0.33682-1.2437-0.90682-2.0209-0.5441-0.80319-1.2955-1.2436-0.72546-0.44046-1.6064-0.59592t-1.8655-0.15546q-1.8136 0-3.6273 0.15546v6.4773q0.51819 0 0.98456-0.0259 0.49228-0.0259 1.0105-0.0259 1.7877 0 2.8241-0.69955 1.0623-0.72546 1.2955-2.6168h0.31091q0 0.93274-0.0259 1.8655-0.0259 0.93273-0.0259 1.8396 0 0.93274 0.0259 1.8655 0.0259 0.93273 0.0259 1.8655h-0.31091q-0.23318-1.0882-0.57-1.7618-0.31091-0.69955-0.85501-1.0623-0.51819-0.36273-1.2696-0.49227-0.72546-0.12955-1.7618-0.12955h-1.6582z" />
                                <path
                                    d="m107.78 158.38-2.9427 7.627h5.6452zm-3.243 8.5278-1.9818 5.435q-0.0901 0.24022-0.18016 0.42038-0.0601 0.18016-0.0601 0.39036 0 0.54049 0.30028 0.93085 0.3303 0.39036 0.78071 0.6606 0.45041 0.24022 0.93085 0.39036 0.48044 0.15013 0.81074 0.21019v0.36033q-0.90082-0.0601-1.8016-0.0901-0.90082-0.03-1.8317-0.03-0.90082 0-1.7716 0.03-0.84077 0.03-1.8016 0.0901v-0.36033q0.93085-0.21019 1.5314-0.63057 0.63058-0.45042 1.051-1.051 0.42038-0.60054 0.72066-1.3212 0.30027-0.72066 0.63057-1.5014l5.1947-12.762q0.0901-0.21019 0.15014-0.39035 0.0901-0.18017 0.0901-0.33031 0-0.15013-0.12011-0.45041-0.0901-0.30027-0.24022-0.54049 0.78072-0.15014 1.3512-0.39036t1.2612-0.51046l6.2457 17.176q0.42038 1.1711 1.1711 1.8617 0.75068 0.66061 2.222 0.84077v0.36033q-1.2011-0.0601-2.3722-0.0901t-2.4022-0.03q-0.81074 0-1.4113 0-0.60055 0.03-1.081 0.03-0.48044 0.03-0.93085 0.03-0.42038 0.03-0.93085 0.06v-0.36033q1.2612-0.15013 2.1019-0.63057 0.8708-0.51047 0.8708-1.3512 0-0.24022-0.12011-0.48044-0.0901-0.24022-0.15014-0.45041l-1.9518-5.525z" />
                                <path
                                    d="m99.615 52.604q1.3492 0.69958 2.7484 0.94943 1.3992 0.24985 2.8483 0.24985 3.1981 0 5.2968-1.7489 2.1487-1.7989 2.1487-5.1469 0-1.699-0.69958-3.0482t-1.8489-2.2986q-1.1493-0.9994-2.6984-1.4991-1.4991-0.54967-3.1481-0.54967-1.1993 0-2.3486 0.09994t-2.2986 0.4997zm0 15.591q0.19988 0.34979 0.89946 0.69958 0.74955 0.29982 1.699 0.54967 0.9994 0.19988 2.0987 0.34979 1.0993 0.09994 2.0987 0.09994 4.0476 0 6.2962-2.0987 2.2986-2.1487 2.2986-6.1963 0-2.1987-1.3492-3.9976-1.3492-1.8489-3.0981-3.0482-1.1993 0.19988-2.3986 0.39976-1.1993 0.14991-2.4485 0.14991-1.5491 0-3.0981-0.14991-1.5491-0.19988-2.9982-0.74955zm-4.4973-21.887q0-2.0987-0.14991-3.4479-0.09994-1.3992-0.64961-2.2486-0.4997-0.84949-1.4991-1.2492-0.9994-0.39976-2.7983-0.54967v-0.59964q1.5491 0.09994 3.0482 0.14991 1.4991 0.04997 3.0482 0.04997 1.9988 0 3.9976-0.19988t4.2974-0.19988q2.0987 0 4.3974 0.44973 2.3486 0.44973 4.2974 1.5491 1.9488 1.0494 3.248 2.8483t1.2992 4.4973q0 1.1493-0.39976 2.1987-0.34979 0.9994-1.0494 1.8989-0.64961 0.84949-1.5491 1.4991-0.89946 0.64961-1.9488 0.9994v0.09994q3.4479 1.0993 5.3468 3.398 1.9488 2.2486 1.9488 5.9964 0 2.2986-0.9994 3.8477-0.9994 1.4991-2.6484 2.4485-1.649 0.89946-3.7478 1.2492-2.0987 0.39976-4.2974 0.39976-3.398 0-6.7959-0.24985-3.348-0.24985-6.7459-0.24985-1.1493 0-2.3486 0.04997-1.1493 0.04997-2.2986 0.14991v-0.59964q1.7489-0.14991 2.7483-0.54967 0.9994-0.39976 1.4991-1.2492 0.4997-0.84949 0.59964-2.1987 0.14991-1.3992 0.14991-3.4979z" />
                                <path
                                    d="m103.88 105.3-4.8971 12.692h9.3944zm-5.3968 14.191-3.298 9.0446q-0.14991 0.39976-0.29982 0.69958-0.09994 0.29982-0.09994 0.64961 0 0.89946 0.4997 1.5491 0.54967 0.64961 1.2992 1.0993 0.74955 0.39976 1.5491 0.64961 0.79952 0.24985 1.3492 0.34979v0.59964q-1.4991-0.0999-2.9982-0.14991-1.4991-0.0499-3.0482-0.0499-1.4991 0-2.9482 0.0499-1.3992 0.05-2.9982 0.14991v-0.59964q1.5491-0.34979 2.5485-1.0494 1.0494-0.74955 1.7489-1.749 0.69958-0.9994 1.1993-2.1987 0.4997-1.1993 1.0494-2.4985l8.6448-21.237q0.14991-0.34979 0.24985-0.64961 0.14991-0.29982 0.14991-0.54967t-0.19988-0.74955q-0.14991-0.4997-0.39976-0.89946 1.2992-0.24985 2.2486-0.64961 0.94943-0.39975 2.0987-0.84948l10.394 28.583q0.69958 1.9488 1.9488 3.0981 1.2492 1.0993 3.6978 1.3992v0.59964q-1.9988-0.0999-3.9476-0.14991-1.9488-0.0499-3.9976-0.0499-1.3492 0-2.3486 0-0.9994 0.0499-1.7989 0.0499-0.79952 0.05-1.5491 0.05-0.69957 0.05-1.5491 0.0999v-0.59964q2.0987-0.24985 3.4979-1.0494 1.4491-0.84949 1.4491-2.2486 0-0.39976-0.19988-0.79952-0.14991-0.39976-0.24985-0.74955l-3.248-9.1945z" />
                            </g>
                        </g>
                    </svg>